<svg width="800" height="520" viewBox="0 0 800 520" fill="none" xmlns="http://www.w3.org/2000/svg">
  <defs>
    <linearGradient id="bg" x1="92" y1="30" x2="708" y2="490" gradientUnits="userSpaceOnUse">
      <stop stop-color="#EFF6FF"/>
      <stop offset="0.55" stop-color="#EEF2FF"/>
      <stop offset="1" stop-color="#F8FAFC"/>
    </linearGradient>
    <linearGradient id="accent" x1="190" y1="128" x2="610" y2="392" gradientUnits="userSpaceOnUse">
      <stop stop-color="#2563EB"/>
      <stop offset="0.55" stop-color="#4F46E5"/>
      <stop offset="1" stop-color="#0F172A"/>
    </linearGradient>
    <filter id="shadow" x="120" y="86" width="560" height="360" filterUnits="userSpaceOnUse" color-interpolation-filters="sRGB">
      <feFlood flood-opacity="0" result="BackgroundImageFix"/>
      <feColorMatrix in="SourceAlpha" type="matrix" values="0 0 0 0 0 0 0 0 0 0 0 0 0 0 0 0 0 0 127 0" result="hardAlpha"/>
      <feOffset dy="18"/>
      <feGaussianBlur stdDeviation="18"/>
      <feColorMatrix type="matrix" values="0 0 0 0 0.0588235 0 0 0 0 0.0901961 0 0 0 0 0.164706 0 0 0 0.18 0"/>
      <feBlend mode="normal" in2="BackgroundImageFix" result="effect1_dropShadow"/>
      <feBlend mode="normal" in="SourceGraphic" in2="effect1_dropShadow" result="shape"/>
    </filter>
  </defs>

  <rect x="44" y="28" width="712" height="464" rx="36" fill="url(#bg)"/>
  <path d="M124 112C124 84.3858 146.386 62 174 62H626C653.614 62 676 84.3858 676 112V128H124V112Z" fill="#0F172A" opacity="0.08"/>

  <g filter="url(#shadow)">
    <rect x="150" y="110" width="500" height="312" rx="28" fill="white"/>
    <rect x="150" y="110" width="500" height="56" rx="28" fill="#0F172A" opacity="0.06"/>
    <circle cx="186" cy="138" r="7" fill="#EF4444" opacity="0.65"/>
    <circle cx="210" cy="138" r="7" fill="#F59E0B" opacity="0.65"/>
    <circle cx="234" cy="138" r="7" fill="#10B981" opacity="0.65"/>

    <rect x="188" y="190" width="220" height="18" rx="9" fill="#0F172A" opacity="0.08"/>
    <rect x="188" y="218" width="280" height="14" rx="7" fill="#0F172A" opacity="0.06"/>
    <rect x="188" y="244" width="260" height="14" rx="7" fill="#0F172A" opacity="0.06"/>

    <rect x="188" y="286" width="168" height="92" rx="18" fill="#2563EB" opacity="0.08"/>
    <path d="M232 336L260 310L288 336" stroke="url(#accent)" stroke-width="10" stroke-linecap="round" stroke-linejoin="round"/>
    <path d="M316 336L288 310L260 336" stroke="url(#accent)" stroke-width="10" stroke-linecap="round" stroke-linejoin="round" opacity="0.55"/>

    <rect x="374" y="286" width="240" height="92" rx="18" fill="#4F46E5" opacity="0.08"/>
    <path d="M420 318H512" stroke="url(#accent)" stroke-width="10" stroke-linecap="round"/>
    <path d="M420 346H560" stroke="url(#accent)" stroke-width="10" stroke-linecap="round" opacity="0.55"/>

    <rect x="486" y="188" width="128" height="64" rx="18" fill="url(#accent)" opacity="0.12"/>
    <path d="M520 214L544 202" stroke="#0F172A" stroke-width="10" stroke-linecap="round" opacity="0.35"/>
    <path d="M520 234L572 212" stroke="#0F172A" stroke-width="10" stroke-linecap="round" opacity="0.35"/>
  </g>

  <path d="M620 90C646 92 672 108 688 130" stroke="#4F46E5" stroke-width="12" stroke-linecap="round" opacity="0.15"/>
  <path d="M126 418C160 444 198 456 238 456" stroke="#2563EB" stroke-width="12" stroke-linecap="round" opacity="0.14"/>
</svg>

