<svg width="600" height="420" viewBox="0 0 600 420" fill="none" xmlns="http://www.w3.org/2000/svg">
  <defs>
    <linearGradient id="bg" x1="40" y1="28" x2="560" y2="392" gradientUnits="userSpaceOnUse">
      <stop stop-color="#0B1220"/>
      <stop offset="0.45" stop-color="#1D4ED8"/>
      <stop offset="1" stop-color="#EFF6FF"/>
    </linearGradient>
    <linearGradient id="hero" x1="120" y1="96" x2="480" y2="220" gradientUnits="userSpaceOnUse">
      <stop stop-color="#60A5FA"/>
      <stop offset="0.6" stop-color="#A78BFA"/>
      <stop offset="1" stop-color="#0F172A"/>
    </linearGradient>
    <filter id="shadow" x="86" y="70" width="444" height="310" filterUnits="userSpaceOnUse" color-interpolation-filters="sRGB">
      <feFlood flood-opacity="0" result="BackgroundImageFix"/>
      <feColorMatrix in="SourceAlpha" type="matrix" values="0 0 0 0 0 0 0 0 0 0 0 0 0 0 0 0 0 0 127 0" result="hardAlpha"/>
      <feOffset dy="16"/>
      <feGaussianBlur stdDeviation="16"/>
      <feColorMatrix type="matrix" values="0 0 0 0 0.0588235 0 0 0 0 0.0901961 0 0 0 0 0.164706 0 0 0 0.22 0"/>
      <feBlend mode="normal" in2="BackgroundImageFix" result="effect1_dropShadow"/>
      <feBlend mode="normal" in="SourceGraphic" in2="effect1_dropShadow" result="shape"/>
    </filter>
    <filter id="soft" x="0" y="0" width="600" height="420" filterUnits="userSpaceOnUse" color-interpolation-filters="sRGB">
      <feGaussianBlur stdDeviation="0.01" />
    </filter>
  </defs>

  <rect x="0" y="0" width="600" height="420" fill="url(#bg)"/>
  <circle cx="88" cy="74" r="120" fill="#38BDF8" opacity="0.18"/>
  <circle cx="536" cy="80" r="150" fill="#A78BFA" opacity="0.16"/>
  <circle cx="520" cy="360" r="160" fill="#22C55E" opacity="0.08"/>

  <g filter="url(#shadow)">
    <!-- Desktop -->
    <rect x="110" y="86" width="380" height="240" rx="22" fill="#FFFFFF"/>
    <rect x="110" y="86" width="380" height="64" rx="22" fill="url(#hero)" opacity="0.92"/>
    <rect x="138" y="170" width="180" height="14" rx="7" fill="#0F172A" opacity="0.16"/>
    <rect x="138" y="192" width="240" height="10" rx="5" fill="#0F172A" opacity="0.10"/>
    <rect x="138" y="210" width="220" height="10" rx="5" fill="#0F172A" opacity="0.10"/>
    <rect x="138" y="236" width="110" height="34" rx="17" fill="#1D4ED8" opacity="0.14"/>
    <rect x="270" y="236" width="130" height="34" rx="17" fill="#0F172A" opacity="0.08"/>
    <rect x="360" y="170" width="110" height="90" rx="18" fill="#0F172A" opacity="0.05"/>
    <rect x="380" y="188" width="70" height="10" rx="5" fill="#0F172A" opacity="0.12"/>
    <rect x="380" y="206" width="52" height="10" rx="5" fill="#0F172A" opacity="0.12"/>

    <!-- Devices (overlap) -->
    <rect x="146" y="276" width="180" height="120" rx="20" fill="#FFFFFF"/>
    <rect x="146" y="276" width="180" height="28" rx="20" fill="#0F172A" opacity="0.06"/>
    <rect x="164" y="320" width="140" height="10" rx="5" fill="#0F172A" opacity="0.10"/>
    <rect x="164" y="340" width="110" height="10" rx="5" fill="#0F172A" opacity="0.10"/>

    <rect x="328" y="258" width="76" height="140" rx="20" fill="#FFFFFF"/>
    <rect x="340" y="276" width="52" height="8" rx="4" fill="#0F172A" opacity="0.10"/>
    <rect x="340" y="300" width="52" height="72" rx="14" fill="#1D4ED8" opacity="0.10"/>
  </g>
</svg>

