<svg width="600" height="420" viewBox="0 0 600 420" fill="none" xmlns="http://www.w3.org/2000/svg">
  <defs>
    <linearGradient id="bg" x1="60" y1="36" x2="540" y2="386" gradientUnits="userSpaceOnUse">
      <stop stop-color="#0F172A"/>
      <stop offset="0.48" stop-color="#0891B2"/>
      <stop offset="1" stop-color="#ECFEFF"/>
    </linearGradient>
    <linearGradient id="hero" x1="130" y1="98" x2="470" y2="210" gradientUnits="userSpaceOnUse">
      <stop stop-color="#22C55E"/>
      <stop offset="0.55" stop-color="#06B6D4"/>
      <stop offset="1" stop-color="#0F172A"/>
    </linearGradient>
    <filter id="shadow" x="84" y="70" width="448" height="312" filterUnits="userSpaceOnUse" color-interpolation-filters="sRGB">
      <feFlood flood-opacity="0"/>
      <feColorMatrix in="SourceAlpha" type="matrix" values="0 0 0 0 0 0 0 0 0 0 0 0 0 0 0 0 0 0 127 0"/>
      <feOffset dy="16"/>
      <feGaussianBlur stdDeviation="16"/>
      <feColorMatrix type="matrix" values="0 0 0 0 0.0588235 0 0 0 0 0.0901961 0 0 0 0 0.164706 0 0 0 0.22 0"/>
      <feBlend mode="normal" in2="BackgroundImageFix" result="shadow"/>
      <feBlend mode="normal" in="SourceGraphic" in2="shadow" result="shape"/>
    </filter>
  </defs>

  <rect width="600" height="420" fill="url(#bg)"/>
  <circle cx="520" cy="72" r="140" fill="#22C55E" opacity="0.12"/>
  <circle cx="92" cy="360" r="160" fill="#06B6D4" opacity="0.12"/>

  <g filter="url(#shadow)">
    <rect x="108" y="86" width="384" height="240" rx="22" fill="#FFFFFF"/>
    <rect x="108" y="86" width="384" height="64" rx="22" fill="url(#hero)" opacity="0.92"/>

    <rect x="136" y="170" width="160" height="14" rx="7" fill="#0F172A" opacity="0.16"/>
    <rect x="136" y="192" width="250" height="10" rx="5" fill="#0F172A" opacity="0.10"/>
    <rect x="136" y="210" width="230" height="10" rx="5" fill="#0F172A" opacity="0.10"/>

    <!-- Dashboard tiles -->
    <rect x="136" y="238" width="110" height="60" rx="16" fill="#22C55E" opacity="0.10"/>
    <rect x="256" y="238" width="110" height="60" rx="16" fill="#06B6D4" opacity="0.10"/>
    <rect x="376" y="238" width="88" height="60" rx="16" fill="#0F172A" opacity="0.06"/>

    <!-- Tablet + phone -->
    <rect x="150" y="276" width="176" height="118" rx="20" fill="#FFFFFF"/>
    <rect x="150" y="276" width="176" height="28" rx="20" fill="#0F172A" opacity="0.06"/>
    <rect x="168" y="322" width="136" height="10" rx="5" fill="#0F172A" opacity="0.10"/>
    <rect x="168" y="342" width="112" height="10" rx="5" fill="#0F172A" opacity="0.10"/>

    <rect x="338" y="258" width="74" height="140" rx="20" fill="#FFFFFF"/>
    <rect x="350" y="276" width="50" height="8" rx="4" fill="#0F172A" opacity="0.10"/>
    <rect x="350" y="300" width="50" height="72" rx="14" fill="#06B6D4" opacity="0.10"/>
  </g>
</svg>

